{"title":"Les Misérables 2012 DVDSCR XVID AC3 BHRG","uid":8007011,"size":1935031429,"categoryP":"video","categoryS":"movies","magnet":"?xt=urn:btih:03a877bd890018335feae87e110c4628068f5d0e&amp;dn=Les+Mis%26eacute%3Brables+2012+DVDSCR+XVID+AC3+BHRG&amp;tr=udp%3A%2F%2Ftracker.openbittorrent.com%3A80&amp;tr=udp%3A%2F%2Fopen.demonii.com%3A1337&amp;tr=udp%3A%2F%2Ftracker.coppersurfer.tk%3A6969&amp;tr=udp%3A%2F%2Fexodus.desync.com%3A6969","seeders":1,"leechers":0,"uploader":"juggs99","files":3,"time":1357913823,"description":"Format                                   : AVI\nFormat/Info                              : Audio Video Interleave\nFile size                                : 1.79 GiB\nDuration                                 : 2h 37mn\nOverall bit rate                         : 1 626 Kbps\nWriting library                          : VirtualDub build 30091/release\n\nVideo\nID                                       : 0\nFormat                                   : MPEG-4 Visual\nFormat profile                           : Advanced Simple@L5\nFormat settings, BVOP                    : 1\nFormat settings, QPel                    : No\nFormat settings, GMC                     : No warppoints\nFormat settings, Matrix                  : Default (H.263)\nMuxing mode                              : Packed bitstream\nCodec ID                                 : XVID\nCodec ID/Hint                            : XviD\nDuration                                 : 2h 37mn\nBit rate                                 : 1 294 Kbps\nWidth                                    : 656 pixels\nHeight                                   : 352 pixels\nDisplay aspect ratio                     : 1.85:1\nFrame rate                               : 29.970 fps\nColor space                              : YUV\nChroma subsampling                       : 4:2:0\nBit depth                                : 8 bits\nScan type                                : Progressive\nCompression mode                         : Lossy\nBits/(Pixel*Frame)                       : 0.187\nStream size                              : 1.43 GiB (80%)\nWriting library                          : XviD 1.2.1 (UTC 2008-12-04)\n\nAudio\nID                                       : 1\nFormat                                   : AC-3\nFormat/Info                              : Audio Coding 3\nMode extension                           : CM (complete main)\nFormat settings, Endianness              : Big\nCodec ID                                 : 2000\nDuration                                 : 2h 37mn\nBit rate mode                            : Constant\nBit rate                                 : 320 Kbps\nChannel(s)                               : 2 channels\nChannel positions                        : Front: L R\nSampling rate                            : 48.0 KHz\nBit depth                                : 16 bits\nCompression mode                         : Lossy\nStream size                              : 361 MiB (20%)\n\n &lt;a href=&quot;\nhttp://www.shotpix.com/images/33673321324538112143.png&quot; rel=&quot;nofollow&quot; target=&quot;_NEW&quot;&gt;\nhttp://www.shotpix.com/images/33673321324538112143.png&lt;/a&gt; &lt;a href=&quot;\nhttp://www.shotpix.com/images/45626186351941140030.png&quot; rel=&quot;nofollow&quot; target=&quot;_NEW&quot;&gt;\nhttp://www.shotpix.com/images/45626186351941140030.png&lt;/a&gt; &lt;a href=&quot;\nhttp://www.shotpix.com/images/72962247148809256395.png&quot; rel=&quot;nofollow&quot; target=&quot;_NEW&quot;&gt;\nhttp://www.shotpix.com/images/72962247148809256395.png&lt;/a&gt; &lt;a href=&quot;\nhttp://www.shotpix.com/images/51854530844750778121.png&quot; rel=&quot;nofollow&quot; target=&quot;_NEW&quot;&gt;\nhttp://www.shotpix.com/images/51854530844750778121.png&lt;/a&gt;","torrent":{"xt":"urn:btih:03a877bd890018335feae87e110c4628068f5d0e","amp;dn":"Les+Mis%26eacute%3Brables+2012+DVDSCR+XVID+AC3+BHRG","amp;tr":["udp%3A%2F%2Ftracker.openbittorrent.com%3A80","udp%3A%2F%2Fopen.demonii.com%3A1337","udp%3A%2F%2Ftracker.coppersurfer.tk%3A6969","udp%3A%2F%2Fexodus.desync.com%3A6969"],"infoHash":"03a877bd890018335feae87e110c4628068f5d0e","infoHashBuffer":{"type":"Buffer","data":[3,168,119,189,137,0,24,51,95,234,232,126,17,12,70,40,6,143,93,14]},"announce":[],"urlList":[]}}